<svg width="375" height="339" viewBox="0 0 375 339" fill="none" xmlns="http://www.w3.org/2000/svg">
<path d="M71.6875 93.1562H81.6562V142H71.6875V93.1562ZM72.9688 173.156H82.875L100.625 190.969L118.375 173.156H128.281V222H118.375V186.875L100.625 203.969L82.875 186.875V222H72.9688V173.156ZM140.938 173.156H150.906V222H140.938V173.156ZM163.562 173.156H188.406C192.156 173.156 195.406 173.552 198.156 174.344C200.906 175.115 203.188 176.24 205 177.719C206.812 179.198 208.156 181 209.031 183.125C209.927 185.25 210.375 187.656 210.375 190.344C210.375 192.156 210.156 193.885 209.719 195.531C209.281 197.156 208.604 198.656 207.688 200.031C206.792 201.406 205.656 202.635 204.281 203.719C202.906 204.781 201.292 205.667 199.438 206.375L210.062 222H197.938L188.75 208.125H188.469L173.469 208.094V222H163.562V173.156ZM188.656 199.531C190.531 199.531 192.167 199.312 193.562 198.875C194.979 198.438 196.156 197.823 197.094 197.031C198.052 196.24 198.76 195.281 199.219 194.156C199.698 193.01 199.938 191.74 199.938 190.344C199.938 187.615 199 185.51 197.125 184.031C195.25 182.531 192.427 181.781 188.656 181.781H173.469V199.531H188.656ZM238.781 173.156H249.281L272.906 222H262.5L258.594 213.781H230.062L226.281 222H215.844L238.781 173.156ZM254.688 205.625L244.125 183.438L233.844 205.625H254.688ZM280.5 173.156H322.094V181.844H290.406V191.594H318.469V199.75H290.406V213.344H322.75V222H280.5V173.156Z" fill="black"/>
<path fill-rule="evenodd" clip-rule="evenodd" d="M206.625 154.86C205.515 155.68 204.31 156.36 202.985 156.71C199.255 157.71 195.18 156.22 191.62 155.22C167.755 148.505 151.77 137.99 147.185 122.3C143.525 109.77 147.045 97.22 154.785 89.42C161.955 82.195 172.585 79.265 183.49 83.96C190.59 74.44 201.265 71.66 211.085 74.335C221.685 77.22 231.005 86.33 234.1 99.01C234.707 101.497 235.012 104.028 235.015 106.605C236.295 107.262 237.495 108.062 238.615 109.005C244.4 113.9 247.49 122.215 245.765 130.86C243.565 141.89 233.34 149.635 218.715 155.165C216.21 156.115 213.47 157.29 210.735 156.81C209.215 156.54 207.855 155.76 206.625 154.86ZM156.785 119.495C154.11 110.33 156.8 101.59 161.885 96.465C166.765 91.545 174 89.715 182 94.395C184.795 96.03 188.4 95.06 190 92.255C194.59 84.2 201.77 82.165 208.455 83.985C215.425 85.885 222.125 92.105 224.385 101.38C224.662 102.493 224.845 103.635 224.935 104.805C223.103 105.039 221.317 105.547 219.635 106.31C214.265 101.075 207.155 100.045 200.885 102.355C193.775 104.97 188.025 111.73 186.685 120.445C185.32 129.37 189.535 138.07 197.38 146.435C196.39 146.185 195.365 145.885 194.33 145.595C171.175 139.08 159.83 129.92 156.785 119.495ZM196.575 121.96C197.375 116.71 200.77 113.055 204.34 111.735C207.64 110.525 211.305 111.16 214.09 115.185C214.505 115.785 215.035 116.296 215.649 116.69C216.263 117.084 216.95 117.352 217.668 117.479C218.386 117.605 219.123 117.589 219.834 117.429C220.546 117.27 221.219 116.971 221.815 116.55C225.815 113.715 229.475 114.375 232.155 116.64C235.065 119.1 236.995 123.7 235.955 128.905C234.83 134.555 229.115 140.545 215.18 145.81C214.295 146.145 213.415 146.505 212.505 146.77C211.74 146.205 211.035 145.57 210.315 144.955C199.025 135.24 195.7 127.655 196.575 121.955V121.96Z" fill="#FF6201"/>
</svg>
